<svg width="126" height="126" viewBox="0 0 126 126" fill="none" xmlns="http://www.w3.org/2000/svg">
<rect x="2" y="2" width="122" height="122" rx="2" fill="#F8F8FE" stroke="#CDB1FB" stroke-width="4"/>
<path d="M73.0107 50.3334L72.6584 49.3306L70.6431 43.5955C70.6431 43.5953 70.643 43.5951 70.6429 43.5949C70.6224 43.5371 70.5944 43.5099 70.5823 43.5009C70.5819 43.5006 70.5815 43.5003 70.5811 43.5H54.4188C54.4185 43.5002 54.4182 43.5004 54.4179 43.5007C54.4062 43.5094 54.3784 43.5363 54.3579 43.5943L73.0107 50.3334ZM73.0107 50.3334H74.0735H83.389C83.8808 50.3334 84.5 50.8142 84.5 51.6805V51.6805V80.1528C84.5 81.0192 83.8807 81.5 83.3889 81.5H41.6111C41.1194 81.5 40.5 81.0192 40.5 80.1527V51.6805C40.5 50.8142 41.1193 50.3334 41.6111 50.3334H50.926H51.9887L52.3411 49.3309L54.3577 43.5947L73.0107 50.3334Z" stroke="#9B63F8" stroke-width="3"/>
<path d="M52.5 65.0153C52.5 59.2169 57.2133 54.5 63 54.5C68.7868 54.5 73.5 59.2165 73.5 65.0153C73.5 70.8143 68.7868 75.5311 63 75.5311C57.2132 75.5311 52.5 70.8143 52.5 65.0153Z" stroke="#9B63F8" stroke-width="3"/>
<path d="M61.6803 59.1377H64.5093V71.641H61.6803V59.1377Z" fill="#9B63F8"/>
<path d="M57.4369 66.9523V63.8264H68.7528V66.9523H57.4369Z" fill="#9B63F8"/>
</svg>
